<svg width="884.1285400390625px" height="188px" xmlns="http://www.w3.org/2000/svg" viewBox="-192.06427001953125 -19 884.1285400390625 188" style="background: rgb(255, 255, 255);" preserveAspectRatio="xMidYMid"><filter id="editing-goldstamp"><feFlood flood-color="#000000" result="flood"></feFlood><feMorphology operator="dilate" radius="1" in="SourceGraphic" result="outline"></feMorphology><feComposite operator="in" in="flood" in2="outline" result="outline2"></feComposite><feGaussianBlur stdDeviation="4" in="SourceAlpha" result="blur"></feGaussianBlur><feSpecularLighting surfaceScale="2" specularConstant="0.7" specularExponent="10" lighting-color="#white" in="blur" result="specular"><fePointLight x="200" y="-1000" z="300"></fePointLight></feSpecularLighting><feComposite operator="in" in="specular" in2="SourceGraphic" result="specular2"></feComposite><feComposite in="SourceGraphic" in2="specular2" operator="arithmetic" k1="3" k2="2" k3="1" k4="0" result="specular3"></feComposite><feMerge><feMergeNode in="outline2"></feMergeNode><feMergeNode in="specular3"></feMergeNode></feMerge></filter><g filter="url(#editing-goldstamp)"><g transform="translate(-65.26697754859924, 115.7400016784668)"><path d="M3.76-5.35L3.76-5.35L10.40-4.75L10.40-4.75Q12.57-4.75 13.71-5.20L13.71-5.20L13.71-5.20Q14.85-5.64 15.39-5.45L15.39-5.45L15.39-5.45Q15.94-5.25 15.15-4.70L15.15-4.70L15.15-4.70Q14.36-4.16 12.52-3.86L12.52-3.86L12.52-3.86Q10.69-3.56 10.30-3.37L10.30-3.37L10.30-3.37Q11.88-2.77 13.76-1.68L13.76-1.68L19.01 1.58L19.01 1.58Q21.38-3.96 22.37-7.13L22.37-7.13L22.37-7.13Q21.78-6.83 20.79-6.68L20.79-6.68L20.79-6.68Q19.80-6.53 19.80-7.23L19.80-7.23L19.80-7.23Q19.80-7.92 20.99-8.32L20.99-8.32L23.17-8.91L23.17-8.91Q24.75-13.46 26.68-19.95L26.68-19.95L26.68-19.95Q28.61-26.43 28.61-26.53L28.61-26.53L28.61-26.53Q34.55-45.54 38.91-50.49L38.91-50.49L38.91-50.49Q43.26-55.44 46.93-56.93L46.93-56.93L46.93-56.93Q50.59-58.41 52.47-58.41L52.47-58.41L52.47-58.41Q57.72-58.41 60.79-54.25L60.79-54.25L60.79-54.25Q62.87-51.38 62.87-47.03L62.87-47.03L62.87-47.03Q62.87-38.81 57.27-30.69L57.27-30.69L57.27-30.69Q51.68-22.57 43.76-16.98L43.76-16.98L43.76-16.98Q35.84-11.38 27.32-8.42L27.32-8.42L27.32-8.42Q24.35-1.39 21.68 3.17L21.68 3.17L21.68 3.17Q36.83 12.87 43.16 14.95L43.16 14.95L43.16 14.95Q50.49 17.42 57.12 17.42L57.12 17.42L57.12 17.42Q64.35 17.42 69.10 13.46L69.10 13.46L69.10 13.46Q71.58 11.48 71.58 9.31L71.58 9.31L71.58 9.31Q71.58 7.13 70.74 5.45L70.74 5.45L70.74 5.45Q69.89 3.76 70.88 3.61L70.88 3.61L70.88 3.61Q71.87 3.47 72.47 4.65L72.47 4.65L72.47 4.65Q73.95 7.92 73.95 11.38L73.95 11.38L73.95 11.38Q73.95 11.98 73.95 12.57L73.95 12.57L73.95 12.57Q73.85 16.34 70.49 19.21L70.49 19.21L70.49 19.21Q66.53 22.57 58.31 22.57L58.31 22.57L58.31 22.57Q52.77 22.57 48.56 21.09L48.56 21.09L48.56 21.09Q44.35 19.60 41.93 18.66L41.93 18.66L41.93 18.66Q39.50 17.72 35.89 15.39L35.89 15.39L35.89 15.39Q32.27 13.07 30.79 12.08L30.79 12.08L30.79 12.08Q27.82 10.10 20.69 4.75L20.69 4.75L20.69 4.75Q15.54 13.66 11.58 13.66L11.58 13.66L11.58 13.66Q10.59 13.66 10.40 13.32L10.40 13.32L10.40 13.32Q10.20 12.97 10.44 12.67L10.44 12.67L10.44 12.67Q10.69 12.38 10.99 12.38L10.99 12.38L10.99 12.38Q14.26 12.08 18.32 3.17L18.32 3.17L18.32 3.17Q12.77-0.49 9.01-1.78L9.01-1.78L9.01-1.78Q5.64-0.40 4.36-0.40L4.36-0.40L4.36-0.40Q3.07-0.40 2.67-0.49L2.67-0.49L2.67-0.49Q0.99-1.09 0.99-2.57L0.99-2.57L0.99-2.57Q0.99-4.65 3.56-5.35L3.56-5.35L3.56-5.35Q3.56-5.35 3.76-5.35ZM58.81-48.91L58.81-48.91L58.81-48.91Q58.81-56.43 53.16-56.43L53.16-56.43L53.16-56.43Q48.11-56.43 44.55-51.28L44.55-51.28L44.55-51.28Q40.59-45.74 38.81-40.94L38.81-40.94L38.81-40.94Q37.03-36.14 36.23-33.86L36.23-33.86L36.23-33.86Q34.25-28.31 33.16-23.76L33.16-23.76L33.16-23.76Q29.90-14.65 28.41-11.19L28.41-11.19L28.41-11.19Q39.80-16.34 48.06-25.15L48.06-25.15L48.06-25.15Q56.33-33.96 58.41-45.05L58.41-45.05L58.41-45.05Q58.81-47.12 58.81-48.91ZM77.72-28.81L77.72-28.81L77.72-28.81Q83.06-28.81 83.06-23.66L83.06-23.66L83.06-23.66Q83.06-20.99 81.58-19.30L81.58-19.30L81.58-19.30Q79.10-15.64 73.56-12.92L73.56-12.92L73.56-12.92Q68.01-10.20 64.15-9.90L64.15-9.90L64.15-9.90Q62.77-9.80 62.67-10.69L62.67-10.69L62.67-10.69Q62.57-11.09 62.91-11.19L62.91-11.19L62.91-11.19Q63.26-11.29 63.46-11.29L63.46-11.29L63.46-11.29Q65.74-11.48 69.30-13.46L69.30-13.46L69.30-13.46Q75.93-17.03 79.00-20.79L79.00-20.79L79.00-20.79Q80.29-22.57 80.29-24.21L80.29-24.21L80.29-24.21Q80.29-25.84 78.71-25.84L78.71-25.84L78.71-25.84Q77.42-25.84 75.24-24.75L75.24-24.75L75.24-24.75Q70.59-22.57 65.44-17.18L65.44-17.18L65.44-17.18Q60.29-11.78 58.71-6.63L58.71-6.63L58.71-6.63Q58.21-5.05 58.21-3.51L58.21-3.51L58.21-3.51Q58.21-1.98 59.50-0.59L59.50-0.59L59.50-0.59Q60.79 0.79 63.46 0.79L63.46 0.79L63.46 0.79Q66.43 0.79 70.29-0.79L70.29-0.79L70.29-0.79Q81.48-5.35 87.52-14.55L87.52-14.55L87.52-14.55Q88.11-15.35 88.61-14.85L88.61-14.85L88.61-14.85Q89.00-14.65 89.00-14.36L89.00-14.36L89.00-14.36Q89.00-14.06 88.70-13.66L88.70-13.66L88.70-13.66Q85.73-8.71 81.18-4.85L81.18-4.85L81.18-4.85Q72.37 2.67 64.05 2.67L64.05 2.67L64.05 2.67Q56.93 2.67 54.05-1.58L54.05-1.58L54.05-1.58Q52.97-3.27 52.97-5.64L52.97-5.64L52.97-5.64Q52.97-8.02 54.25-11.29L54.25-11.29L54.25-11.29Q56.73-16.93 64.84-22.87L64.84-22.87L64.84-22.87Q72.96-28.81 77.72-28.81ZM121.37-1.68L121.37-1.68L121.37-1.68Q121.37-0.40 122.66-0.40L122.66-0.40L122.66-0.40Q123.95-0.40 126.13-3.12L126.13-3.12L126.13-3.12Q128.30-5.84 129.10-5.74L129.10-5.74L129.10-5.74Q129.69-5.15 127.81-3.17L127.81-3.17L127.81-3.17Q127.61-2.97 127.12-2.13L127.12-2.13L127.12-2.13Q126.62-1.29 126.27-0.79L126.27-0.79L126.27-0.79Q125.93-0.30 125.33 0.49L125.33 0.49L125.33 0.49Q124.74 1.29 124.25 1.78L124.25 1.78L124.25 1.78Q123.75 2.28 123.16 2.77L123.16 2.77L123.16 2.77Q121.97 3.76 121.08 3.76L121.08 3.76L121.08 3.76Q120.19 3.76 118.65 3.42L118.65 3.42L118.65 3.42Q117.12 3.07 117.07 2.67L117.07 2.67L117.07 2.67Q117.02 2.28 117.02 1.98L117.02 1.98L117.02 1.98Q117.02-3.17 125.43-19.11L125.43-19.11L125.43-19.11Q124.15-19.11 123.40-19.21L123.40-19.21L123.40-19.21Q122.66-19.30 122.51-20.00L122.51-20.00L122.51-20.00Q122.36-20.69 122.91-20.79L122.91-20.79L122.91-20.79Q123.45-20.89 124.05-20.79L124.05-20.79L124.05-20.79Q124.64-20.69 126.13-20.69L126.13-20.69L126.13-20.69Q131.18-29.80 132.17-31.83L132.17-31.83L132.17-31.83Q133.16-33.86 133.16-34.75L133.16-34.75L133.16-34.75Q133.16-35.64 133.06-36.14L133.06-36.14L133.06-36.14Q133.45-38.91 137.86-43.41L137.86-43.41L137.86-43.41Q142.26-47.92 145.83-47.92L145.83-47.92L145.83-47.92Q147.02-47.92 149.04-47.03L149.04-47.03L149.04-47.03Q151.07-46.13 151.37-45.00L151.37-45.00L151.37-45.00Q151.67-43.86 151.52-43.71L151.52-43.71L151.52-43.71Q151.37-43.56 150.88-43.76L150.88-43.76L150.88-43.76Q150.38-43.96 150.28-43.96L150.28-43.96L150.28-43.96Q143.15-43.96 129.99-20.69L129.99-20.69L129.99-20.69Q140.78-21.19 152.11-25.00L152.11-25.00L152.11-25.00Q163.45-28.81 169.49-35.05L169.49-35.05L169.49-35.05Q172.95-38.41 172.95-42.17L172.95-42.17L172.95-42.17Q172.95-53.26 150.28-53.26L150.28-53.26L150.28-53.26Q137.31-53.26 125.53-49.30L125.53-49.30L125.53-49.30Q119.39-47.12 115.09-43.46L115.09-43.46L115.09-43.46Q110.78-39.80 109.99-35.15L109.99-35.15L109.99-35.15Q109.89-34.65 109.89-33.86L109.89-33.86L109.89-33.86Q109.89-33.07 110.53-31.93L110.53-31.93L110.53-31.93Q111.18-30.79 112.07-30.20L112.07-30.20L112.07-30.20Q112.96-29.60 114.59-28.81L114.59-28.81L114.59-28.81Q116.23-28.02 116.77-27.62L116.77-27.62L116.77-27.62Q117.32-27.23 117.02-26.78L117.02-26.78L117.02-26.78Q116.72-26.33 115.73-26.53L115.73-26.53L115.73-26.53Q112.66-27.03 109.99-29.60L109.99-29.60L109.99-29.60Q107.32-32.18 107.32-35.15L107.32-35.15L107.32-35.15Q107.32-36.04 107.51-36.93L107.51-36.93L107.51-36.93Q107.32-38.21 107.32-38.51L107.32-38.51L107.32-38.51Q108.70-45.94 121.87-52.67L121.87-52.67L121.87-52.67Q132.26-57.52 146.42-57.52L146.42-57.52L146.42-57.52Q155.13-57.52 163.65-55.14L163.65-55.14L163.65-55.14Q169.39-53.16 172.36-49.50L172.36-49.50L172.36-49.50Q175.33-45.84 175.33-42.08L175.33-42.08L175.33-42.08Q175.33-36.33 170.78-31.93L170.78-31.93L170.78-31.93Q166.22-27.52 160.58-25.15L160.58-25.15L160.58-25.15Q147.21-19.40 129.10-19.01L129.10-19.01L129.10-19.01Q125.24-11.88 123.30-7.43L123.30-7.43L123.30-7.43Q121.37-2.97 121.37-1.68ZM181.96-10.89L181.96-10.89L181.96-10.89Q183.74-14.55 183.74-16.53L183.74-16.53L183.74-16.53Q183.74-18.51 183.30-19.65L183.30-19.65L183.30-19.65Q182.85-20.79 183.69-21.58L183.69-21.58L183.69-21.58Q184.54-22.37 185.82-22.18L185.82-22.18L185.82-22.18Q187.80-21.68 187.80-17.72L187.80-17.72L187.80-17.72Q187.80-13.76 183.15-7.33L183.15-7.33L183.15-7.33Q183.25-4.65 185.92-4.65L185.92-4.65L185.92-4.65Q188.60-4.65 194.04-10.40L194.04-10.40L194.04-10.40Q196.61-13.37 197.26-14.26L197.26-14.26L197.26-14.26Q197.90-15.15 198.40-14.90L198.40-14.90L198.40-14.90Q198.89-14.65 198.89-14.45L198.89-14.45L198.89-14.45Q198.89-13.46 195.33-9.31L195.33-9.31L195.33-9.31Q189.68-2.38 185.33-2.38L185.33-2.38L185.33-2.38Q182.46-2.38 181.27-4.85L181.27-4.85L181.27-4.85Q179.29-2.77 177.41-0.99L177.41-0.99L177.41-0.99Q173.55 2.28 168.80 2.28L168.80 2.28L168.80 2.28Q166.12 2.28 164.34 0.99L164.34 0.99L164.34 0.99Q160.88-1.09 160.88-6.44L160.88-6.44L160.88-6.44Q160.88-12.28 164.84-18.32L164.84-18.32L164.84-18.32Q167.11-21.88 170.18-24.55L170.18-24.55L170.18-24.55Q175.03-28.81 179.39-28.81L179.39-28.81L179.39-28.81Q180.48-28.81 181.47-28.51L181.47-28.51L181.47-28.51Q184.44-27.52 184.44-24.75L184.44-24.75L184.44-24.75Q184.44-22.47 183.25-22.47L183.25-22.47L183.25-22.47Q182.75-22.67 182.75-23.96L182.75-23.96L182.75-23.96Q182.75-25.74 180.77-25.74L180.77-25.74L180.77-25.74Q177.31-25.74 171.86-19.40L171.86-19.40L171.86-19.40Q166.42-13.07 165.33-6.63L165.33-6.63L165.33-6.63Q165.13-5.54 165.13-4.21L165.13-4.21L165.13-4.21Q165.13-2.87 166.02-1.14L166.02-1.14L166.02-1.14Q166.91 0.59 169.34 0.59L169.34 0.59L169.34 0.59Q171.77 0.59 174.64-1.58L174.64-1.58L174.64-1.58Q177.51-3.76 179.78-7.13L179.78-7.13L179.49-7.72L179.49-7.72Q179.09-9.31 179.88-10.30L179.88-10.30L179.88-10.30Q180.68-11.29 181.96-10.89ZM210.77-27.62L212.06-27.72L212.06-27.72Q219.68-28.41 221.31-28.41L221.31-28.41L221.31-28.41Q222.95-28.41 222.95-27.92L222.95-27.92L222.95-27.92Q222.95-27.32 220.62-26.68L220.62-26.68L220.62-26.68Q218.30-26.04 209.29-25.05L209.29-25.05L209.29-25.05Q208.79-24.16 208.10-22.97L208.10-22.97L208.10-22.97Q206.61-20.59 206.51-20.10L206.51-20.10L206.51-20.10Q200.87-8.81 200.57-5.74L200.57-5.74L200.57-5.74Q200.48-4.85 200.48-3.47L200.48-3.47L200.48-3.47Q200.48-2.08 201.27-1.19L201.27-1.19L201.27-1.19Q202.65 0.40 205.23-0.99L205.23-0.99L205.23-0.99Q207.80-2.38 212.40-6.53L212.40-6.53L212.40-6.53Q217.01-10.69 219.88-14.65L219.88-14.65L219.88-14.65Q220.28-15.15 220.87-14.85L220.87-14.85L220.87-14.85Q222.35-14.16 215.72-7.03L215.72-7.03L215.72-7.03Q209.39-0.20 205.13 1.39L205.13 1.39L205.13 1.39Q202.65 2.28 200.97 2.28L200.97 2.28L200.97 2.28Q197.01 2.28 195.72-1.49L195.72-1.49L195.72-1.49Q195.53-2.18 195.53-3.17L195.53-3.17L195.53-3.17Q195.53-6.63 198.69-13.66L198.69-13.66L198.69-13.66Q198.20-12.57 194.83-8.71L194.83-8.71L194.83-8.71Q193.94-7.72 193.45-8.71L193.45-8.71L193.45-8.71Q193.35-8.91 193.35-9.26L193.35-9.26L193.35-9.26Q193.35-9.60 193.74-10.10L193.74-10.10L193.74-10.10Q198.59-16.14 201.37-20.30L201.37-20.30L201.37-20.30Q201.37-20.39 203.54-24.45L203.54-24.45L203.54-24.45Q202.55-24.26 201.51-24.26L201.51-24.26L201.51-24.26Q200.48-24.26 199.98-24.90L199.98-24.90L199.98-24.90Q199.49-25.54 199.88-26.43L199.88-26.43L199.88-26.43Q200.57-28.02 205.13-28.21L205.13-28.21L205.13-28.21Q205.23-28.41 205.52-28.41L205.52-28.41L210.47-37.62L210.47-37.62Q210.87-38.41 211.37-39.25L211.37-39.25L211.37-39.25Q211.86-40.09 212.11-40.54L212.11-40.54L212.11-40.54Q212.36-40.99 212.65-41.48L212.65-41.48L212.65-41.48Q212.95-41.98 213.15-42.17L213.15-42.17L213.15-42.17Q213.34-42.37 213.54-42.57L213.54-42.57L213.54-42.57Q213.94-43.16 215.87-43.16L215.87-43.16L215.87-43.16Q217.80-43.16 218.49-42.08L218.49-42.08L218.49-42.08Q218.79-41.68 218.79-40.74L218.79-40.74L218.79-40.74Q218.79-39.80 218.10-38.66L218.10-38.66L218.10-38.66Q217.40-37.52 216.61-37.03L216.61-37.03L216.61-37.03Q215.82-36.53 215.52-35.94L215.52-35.94L210.77-27.62ZM241.46-28.81L241.46-28.81L241.46-28.81Q246.81-28.81 246.81-23.66L246.81-23.66L246.81-23.66Q246.81-20.99 245.32-19.30L245.32-19.30L245.32-19.30Q242.85-15.64 237.30-12.92L237.30-12.92L237.30-12.92Q231.76-10.20 227.90-9.90L227.90-9.90L227.90-9.90Q226.51-9.80 226.41-10.69L226.41-10.69L226.41-10.69Q226.31-11.09 226.66-11.19L226.66-11.19L226.66-11.19Q227.01-11.29 227.21-11.29L227.21-11.29L227.21-11.29Q229.48-11.48 233.05-13.46L233.05-13.46L233.05-13.46Q239.68-17.03 242.75-20.79L242.75-20.79L242.75-20.79Q244.03-22.57 244.03-24.21L244.03-24.21L244.03-24.21Q244.03-25.84 242.45-25.84L242.45-25.84L242.45-25.84Q241.16-25.84 238.99-24.75L238.99-24.75L238.99-24.75Q234.33-22.57 229.19-17.18L229.19-17.18L229.19-17.18Q224.04-11.78 222.45-6.63L222.45-6.63L222.45-6.63Q221.96-5.05 221.96-3.51L221.96-3.51L221.96-3.51Q221.96-1.98 223.25-0.59L223.25-0.59L223.25-0.59Q224.53 0.79 227.21 0.79L227.21 0.79L227.21 0.79Q230.18 0.79 234.04-0.79L234.04-0.79L234.04-0.79Q245.22-5.35 251.26-14.55L251.26-14.55L251.26-14.55Q251.86-15.35 252.35-14.85L252.35-14.85L252.35-14.85Q252.75-14.65 252.75-14.36L252.75-14.36L252.75-14.36Q252.75-14.06 252.45-13.66L252.45-13.66L252.45-13.66Q249.48-8.71 244.93-4.85L244.93-4.85L244.93-4.85Q236.12 2.67 227.80 2.67L227.80 2.67L227.80 2.67Q220.67 2.67 217.80-1.58L217.80-1.58L217.80-1.58Q216.71-3.27 216.71-5.64L216.71-5.64L216.71-5.64Q216.71-8.02 218.00-11.29L218.00-11.29L218.00-11.29Q220.47-16.93 228.59-22.87L228.59-22.87L228.59-22.87Q236.71-28.81 241.46-28.81ZM255.12 1.09L255.12 1.09L255.12 1.09Q253.54 1.09 251.71 0.15L251.71 0.15L251.71 0.15Q249.88-0.79 248.59-2.52L248.59-2.52L248.59-2.52Q247.30-4.26 247.30-6.24L247.30-6.24L247.30-6.24Q247.30-8.22 248.19-10.00L248.19-10.00L248.19-10.00Q250.17-14.16 254.58-18.07L254.58-18.07L254.58-18.07Q258.98-21.98 263.74-24.75L263.74-24.75L263.74-24.75Q268.49-27.52 271.26-28.21L271.26-28.21L271.26-28.21Q274.03-28.91 276.66-28.91L276.66-28.91L276.66-28.91Q279.28-28.91 281.16-27.57L281.16-27.57L281.16-27.57Q283.04-26.24 283.04-24.75L283.04-24.75L283.04-24.75Q283.04-24.26 282.94-24.16L282.94-24.16L282.94-24.16Q282.84-24.06 282.45-24.26L282.45-24.26L282.45-24.26Q281.26-26.14 277.55-26.14L277.55-26.14L277.55-26.14Q273.83-26.14 269.13-23.71L269.13-23.71L269.13-23.71Q264.43-21.29 260.27-17.62L260.27-17.62L260.27-17.62Q256.81-14.36 254.18-10.25L254.18-10.25L254.18-10.25Q251.56-6.14 251.56-4.26L251.56-4.26L251.56-4.26Q251.56-0.59 253.64-0.59L253.64-0.59L253.64-0.59Q255.72-0.59 259.97-3.96L259.97-3.96L259.97-3.96Q267.00-9.90 269.58-12.67L269.58-12.67L269.58-12.67Q278.69-22.47 279.38-22.47L279.38-22.47L279.38-22.47Q280.57-22.47 282.25-21.78L282.25-21.78L282.25-21.78Q283.93-21.09 283.34-20.10L283.34-20.10L283.34-20.10Q278.29-12.97 277.40-5.74L277.40-5.74L277.40-5.74Q277.30-4.85 277.30-3.47L277.30-3.47L277.30-3.47Q277.30-2.08 278.09-1.19L278.09-1.19L278.09-1.19Q279.58 0.40 282.15-0.99L282.15-0.99L282.15-0.99Q284.72-2.38 289.33-6.53L289.33-6.53L289.33-6.53Q293.93-10.69 296.70-14.65L296.70-14.65L296.70-14.65Q297.10-15.15 297.59-14.90L297.59-14.90L297.59-14.90Q298.09-14.65 298.09-14.45L298.09-14.45L298.09-14.45Q298.09-12.97 293.39-7.97L293.39-7.97L293.39-7.97Q288.68-2.97 286.21-1.19L286.21-1.19L286.21-1.19Q281.56 2.28 277.60 2.28L277.60 2.28L277.60 2.28Q273.83 2.28 272.55-1.49L272.55-1.49L272.55-1.49Q272.25-2.67 272.25-4.16L272.25-4.16L272.25-4.16Q272.25-8.61 274.13-13.56L274.13-13.56L274.13-13.56Q273.74-13.37 270.47-9.60L270.47-9.60L270.47-9.60Q267.20-5.84 262.89-2.38L262.89-2.38L262.89-2.38Q258.59 1.09 255.12 1.09ZM341.95-13.86L341.95-13.86Q340.46-11.19 336.60-7.03L336.60-7.03L336.60-7.03Q332.74-2.87 329.67-0.59L329.67-0.59L329.67-0.59Q325.71 2.28 321.06 2.28L321.06 2.28L321.06 2.28Q320.17 2.28 318.73 1.44L318.73 1.44L318.73 1.44Q317.30 0.59 316.80-0.99L316.80-0.99L316.80-0.99Q316.31-2.57 316.31-4.06L316.31-4.06L316.31-4.06Q316.31-9.21 318.29-14.26L318.29-14.26L318.29-14.26Q317.99-14.06 315.56-10.05L315.56-10.05L315.56-10.05Q313.14-6.04 309.62-2.48L309.62-2.48L309.62-2.48Q306.11 1.09 302.54 1.09L302.54 1.09L302.54 1.09Q300.86 1.09 298.68 0.20L298.68 0.20L298.68 0.20Q294.72-1.58 294.72-6.34L294.72-6.34L294.72-6.34Q294.72-12.18 298.73-18.36L298.73-18.36L298.73-18.36Q302.74-24.55 303.83-24.95L303.83-24.95L303.83-24.95Q305.32-25.34 306.65-25.34L306.65-25.34L306.65-25.34Q307.99-25.34 309.38-24.80L309.38-24.80L309.38-24.80Q310.76-24.26 308.98-22.97L308.98-22.97L308.98-22.97Q302.15-16.73 299.28-9.11L299.28-9.11L299.28-9.11Q298.19-6.14 298.19-4.11L298.19-4.11L298.19-4.11Q298.19-2.08 299.23-1.49L299.23-1.49L299.23-1.49Q300.27-0.89 301.26-0.89L301.26-0.89L301.26-0.89Q303.63-0.89 307.74-4.21L307.74-4.21L307.74-4.21Q311.85-7.52 319.08-18.02L319.08-18.02L319.08-18.02Q320.07-19.50 322.54-23.81L322.54-23.81L322.54-23.81Q325.02-28.12 325.51-28.91L325.51-28.91L325.51-28.91Q327.10-28.91 329.22-28.17L329.22-28.17L329.22-28.17Q331.35-27.42 330.66-26.24L330.66-26.24L330.66-26.24Q325.91-18.32 323.98-14.55L323.98-14.55L323.98-14.55Q322.05-10.79 321.35-5.74L321.35-5.74L321.35-5.74Q321.25-4.85 321.25-3.47L321.25-3.47L321.25-3.47Q321.25-2.08 322.05-1.19L322.05-1.19L322.05-1.19Q323.53 0.40 326.16-1.04L326.16-1.04L326.16-1.04Q328.78-2.48 333.33-6.58L333.33-6.58L333.33-6.58Q337.89-10.69 340.66-14.65L340.66-14.65L340.66-14.65Q341.06-15.15 341.60-14.90L341.60-14.90L341.60-14.90Q342.14-14.65 342.14-14.40L342.14-14.40L342.14-14.40Q342.14-14.16 341.95-13.86L341.95-13.86ZM365.56-18.07L365.56-18.07L365.56-18.07Q369.96-21.98 374.72-24.75L374.72-24.75L374.72-24.75Q379.47-27.52 382.24-28.21L382.24-28.21L382.24-28.21Q385.01-28.91 387.68-28.91L387.68-28.91L387.68-28.91Q390.36-28.91 392.73-27.13L392.73-27.13L392.73-27.13Q406.30-58.61 418.67-58.61L418.67-58.61L418.67-58.61Q422.83-58.61 424.31-56.23L424.31-56.23L424.31-56.23Q425.01-55.04 425.01-54.15L425.01-54.15L425.01-54.15Q425.01-51.68 422.88-47.87L422.88-47.87L422.88-47.87Q420.75-44.05 416.30-39.50L416.30-39.50L416.30-39.50Q411.84-34.95 403.52-28.26L403.52-28.26L403.52-28.26Q395.21-21.58 394.32-20.79L394.32-20.79L394.32-20.79Q391.15-13.46 389.37-6.63L389.37-6.63L389.37-6.63Q387.59 0.20 387.59 3.56L387.59 3.56L387.59 3.56Q387.59 6.93 388.77 8.91L388.77 8.91L388.77 8.91Q389.37 10.20 390.56 10.44L390.56 10.44L390.56 10.44Q391.74 10.69 392.58 10.15L392.58 10.15L392.58 10.15Q393.43 9.60 393.87 9.21L393.87 9.21L393.87 9.21Q394.32 8.81 394.96 8.46L394.96 8.46L394.96 8.46Q395.60 8.12 395.90 8.32L395.90 8.32L395.90 8.32Q396.20 8.51 395.80 9.41L395.80 9.41L395.80 9.41Q395.01 10.40 394.32 11.09L394.32 11.09L394.32 11.09Q392.73 12.18 390.60 12.18L390.60 12.18L390.60 12.18Q388.48 12.18 387.78 12.08L387.78 12.08L387.78 12.08Q383.03 11.29 383.03 5.15L383.03 5.15L383.03 5.15Q383.03-0.79 384.62-5.84L384.62-5.84L384.62-5.84Q386.79-12.77 388.57-17.32L388.57-17.32L388.57-17.32Q372.74 1.09 366.10 1.09L366.10 1.09L366.10 1.09Q364.52 1.09 362.69 0.15L362.69 0.15L362.69 0.15Q360.86-0.79 359.57-2.52L359.57-2.52L359.57-2.52Q358.28-4.26 358.28-6.24L358.28-6.24L358.28-6.24Q358.28-8.22 359.17-10.00L359.17-10.00L359.17-10.00Q361.15-14.16 365.56-18.07ZM390.56-22.18L391.94-25.54L391.94-25.54Q390.75-26.14 387.78-26.14L387.78-26.14L387.78-26.14Q384.81-26.14 380.11-23.71L380.11-23.71L380.11-23.71Q375.41-21.29 371.25-17.62L371.25-17.62L371.25-17.62Q367.79-14.36 365.16-10.25L365.16-10.25L365.16-10.25Q362.54-6.14 362.54-4.26L362.54-4.26L362.54-4.26Q362.54-0.59 364.62-0.59L364.62-0.59L364.62-0.59Q366.70-0.59 370.95-3.96L370.95-3.96L370.95-3.96Q381.94-12.97 390.56-22.18L390.56-22.18ZM420.95-50.49L420.95-50.49L420.95-50.49Q422.24-52.87 422.24-54.50L422.24-54.50L422.24-54.50Q422.24-56.13 420.80-56.13L420.80-56.13L420.80-56.13Q419.36-56.13 416.99-54.35L416.99-54.35L416.99-54.35Q406.10-46.04 397.29-26.53L397.29-26.53L397.29-26.53Q403.72-30.69 410.75-37.62L410.75-37.62L410.75-37.62Q417.78-44.55 420.95-50.49ZM444.81-13.86L444.81-13.86Q443.32-11.19 439.46-7.03L439.46-7.03L439.46-7.03Q435.60-2.87 432.53-0.59L432.53-0.59L432.53-0.59Q428.57 2.28 423.92 2.28L423.92 2.28L423.92 2.28Q423.03 2.28 421.59 1.44L421.59 1.44L421.59 1.44Q420.16 0.59 419.66-0.99L419.66-0.99L419.66-0.99Q419.17-2.57 419.17-4.06L419.17-4.06L419.17-4.06Q419.17-9.21 421.15-14.26L421.15-14.26L421.15-14.26Q420.85-14.06 418.42-10.05L418.42-10.05L418.42-10.05Q416.00-6.04 412.48-2.48L412.48-2.48L412.48-2.48Q408.97 1.09 405.41 1.09L405.41 1.09L405.41 1.09Q403.72 1.09 401.54 0.20L401.54 0.20L401.54 0.20Q397.58-1.58 397.58-6.34L397.58-6.34L397.58-6.34Q397.58-12.18 401.59-18.36L401.59-18.36L401.59-18.36Q405.60-24.55 406.69-24.95L406.69-24.95L406.69-24.95Q408.18-25.34 409.51-25.34L409.51-25.34L409.51-25.34Q410.85-25.34 412.24-24.80L412.24-24.80L412.24-24.80Q413.62-24.26 411.84-22.97L411.84-22.97L411.84-22.97Q405.01-16.73 402.14-9.11L402.14-9.11L402.14-9.11Q401.05-6.14 401.05-4.11L401.05-4.11L401.05-4.11Q401.05-2.08 402.09-1.49L402.09-1.49L402.09-1.49Q403.13-0.89 404.12-0.89L404.12-0.89L404.12-0.89Q406.49-0.89 410.60-4.21L410.60-4.21L410.60-4.21Q414.71-7.52 421.94-18.02L421.94-18.02L421.94-18.02Q422.93-19.50 425.40-23.81L425.40-23.81L425.40-23.81Q427.88-28.12 428.37-28.91L428.37-28.91L428.37-28.91Q429.96-28.91 432.09-28.17L432.09-28.17L432.09-28.17Q434.21-27.42 433.52-26.24L433.52-26.24L433.52-26.24Q428.77-18.32 426.84-14.55L426.84-14.55L426.84-14.55Q424.91-10.79 424.22-5.74L424.22-5.74L424.22-5.74Q424.12-4.85 424.12-3.47L424.12-3.47L424.12-3.47Q424.12-2.08 424.91-1.19L424.91-1.19L424.91-1.19Q426.39 0.40 429.02-1.04L429.02-1.04L429.02-1.04Q431.64-2.48 436.19-6.58L436.19-6.58L436.19-6.58Q440.75-10.69 443.52-14.65L443.52-14.65L443.52-14.65Q443.92-15.15 444.46-14.90L444.46-14.90L444.46-14.90Q445.00-14.65 445.00-14.40L445.00-14.40L445.00-14.40Q445.00-14.16 444.81-13.86L444.81-13.86ZM469.16 9.01L469.16 9.01L469.16 9.01Q461.34 9.01 461.34 3.47L461.34 3.47L461.34 3.47Q461.34-0.10 464.16-4.90L464.16-4.90L464.16-4.90Q466.98-9.70 469.66-13.81L469.66-13.81L469.66-13.81Q472.33-17.92 476.09-23.51L476.09-23.51L476.09-23.51Q479.85-29.11 481.44-31.48L481.44-31.48L481.44-31.48Q492.03-46.63 494.60-51.78L494.60-51.78L494.60-51.78Q492.33-51.98 488.96-51.98L488.96-51.98L488.96-51.98Q477.18-51.98 469.36-47.32L469.36-47.32L469.36-47.32Q464.51-44.45 464.51-40.19L464.51-40.19L464.51-40.19Q464.51-38.81 465.30-37.62L465.30-37.62L465.30-37.62Q466.09-36.43 466.88-35.94L466.88-35.94L466.88-35.94Q468.47-34.95 470.45-33.96L470.45-33.96L470.45-33.96Q471.64-33.07 470.84-32.87L470.84-32.87L470.84-32.87Q470.55-32.87 470.15-32.97L470.15-32.97L470.15-32.97Q467.87-33.46 465.20-35.84L465.20-35.84L465.20-35.84Q462.53-38.21 462.43-41.28L462.43-41.28L462.43-41.28Q462.03-42.27 462.03-42.97L462.03-42.97L462.03-42.97Q462.03-47.22 465.35-50.34L465.35-50.34L465.35-50.34Q468.67-53.46 473.91-54.65L473.91-54.65L473.91-54.65Q481.04-56.23 486.63-56.23L486.63-56.23L486.63-56.23Q492.23-56.23 496.09-55.34L496.09-55.34L496.09-55.34Q496.39-56.83 495.99-57.72L495.99-57.72L495.99-57.72Q495.59-58.61 496.68-58.81L496.68-58.81L496.68-58.81Q496.88-58.91 496.98-58.91L496.98-58.91L496.98-58.91Q498.07-58.91 498.66-57.32L498.66-57.32L498.66-57.32Q498.86-56.23 498.56-54.75L498.56-54.75L498.56-54.75Q500.35-54.25 502.18-53.51L502.18-53.51L502.18-53.51Q504.01-52.77 504.90-51.33L504.90-51.33L504.90-51.33Q505.79-49.90 504.31-50.00L504.31-50.00L504.31-50.00Q503.42-50.00 501.48-50.64L501.48-50.64L501.48-50.64Q499.55-51.28 497.57-51.48L497.57-51.48L497.57-51.48Q494.50-42.57 486.19-30.20L486.19-30.20L486.19-30.20Q468.27-3.76 468.27 3.56L468.27 3.56L468.27 3.56Q468.27 6.83 471.44 6.83L471.44 6.83L471.44 6.83Q476.39 6.83 487.38-0.49L487.38-0.49L487.38-0.49Q504.31-12.28 516.09-28.91L516.09-28.91L516.09-28.91Q515.99-31.68 515.99-35.64L515.99-35.64L515.99-35.64Q515.99-39.60 516.58-43.46L516.58-43.46L516.58-43.46Q516.88-45.54 518.81-47.32L518.81-47.32L518.81-47.32Q520.74-49.10 521.73-49.10L521.73-49.10L521.73-49.10Q523.02-49.10 523.41-46.83L523.41-46.83L523.61-45.05L523.61-45.05Q523.61-44.15 523.61-43.26L523.61-43.26L523.61-43.26Q523.61-35.64 520.64-29.50L520.64-29.50L520.64-29.50Q520.64-29.11 520.64-28.61L520.64-28.61L520.64-28.61Q520.64-17.52 525.54-8.61L525.54-8.61L525.54-8.61Q530.44 0.30 536.88 0.30L536.88 0.30L536.88 0.30Q542.42 0.30 546.68-5.45L546.68-5.45L546.68-5.45Q553.71-15.05 553.71-28.91L553.71-28.91L553.71-28.91Q553.71-41.48 548.16-47.42L548.16-47.42L548.16-47.42Q544.90-50.89 540.34-50.89L540.34-50.89L540.34-50.89Q536.58-50.89 533.91-48.91L533.91-48.91L533.91-48.91Q532.82-48.21 532.32-49.01L532.32-49.01L532.32-49.01Q531.83-49.80 532.42-50.29L532.42-50.29L532.42-50.29Q537.67-54.15 542.42-54.15L542.42-54.15L542.42-54.15Q547.17-54.15 550.24-51.98L550.24-51.98L550.24-51.98Q557.87-47.03 557.87-32.47L557.87-32.47L557.87-32.47Q557.87-26.24 556.08-19.80L556.08-19.80L556.08-19.80Q553.51-10.40 547.47-3.17L547.47-3.17L547.47-3.17Q541.43 4.06 534.20 4.06L534.20 4.06L534.20 4.06Q534.11 4.06 534.01 4.06L534.01 4.06L534.01 4.06Q526.18 4.06 520.99-3.76L520.99-3.76L520.99-3.76Q515.79-11.58 515.79-21.29L515.79-21.29L515.79-21.29Q515.79-22.47 515.89-23.76L515.89-23.76L515.89-23.76Q511.04-17.62 503.66-10.64L503.66-10.64L503.66-10.64Q496.29-3.66 489.85 0.79L489.85 0.79L489.85 0.79Q478.76 9.01 469.16 9.01ZM586.87-28.81L586.87-28.81L586.87-28.81Q592.22-28.81 592.22-23.66L592.22-23.66L592.22-23.66Q592.22-20.99 590.73-19.30L590.73-19.30L590.73-19.30Q588.26-15.64 582.71-12.92L582.71-12.92L582.71-12.92Q577.17-10.20 573.31-9.90L573.31-9.90L573.31-9.90Q571.92-9.80 571.82-10.69L571.82-10.69L571.82-10.69Q571.73-11.09 572.07-11.19L572.07-11.19L572.07-11.19Q572.42-11.29 572.62-11.29L572.62-11.29L572.62-11.29Q574.89-11.48 578.46-13.46L578.46-13.46L578.46-13.46Q585.09-17.03 588.16-20.79L588.16-20.79L588.16-20.79Q589.45-22.57 589.45-24.21L589.45-24.21L589.45-24.21Q589.45-25.84 587.86-25.84L587.86-25.84L587.86-25.84Q586.58-25.84 584.40-24.75L584.40-24.75L584.40-24.75Q579.74-22.57 574.60-17.18L574.60-17.18L574.60-17.18Q569.45-11.78 567.86-6.63L567.86-6.63L567.86-6.63Q567.37-5.05 567.37-3.51L567.37-3.51L567.37-3.51Q567.37-1.98 568.66-0.59L568.66-0.59L568.66-0.59Q569.94 0.79 572.62 0.79L572.62 0.79L572.62 0.79Q575.59 0.79 579.45-0.79L579.45-0.79L579.45-0.79Q590.63-5.35 596.67-14.55L596.67-14.55L596.67-14.55Q597.27-15.35 597.76-14.85L597.76-14.85L597.76-14.85Q598.16-14.65 598.16-14.36L598.16-14.36L598.16-14.36Q598.16-14.06 597.86-13.66L597.86-13.66L597.86-13.66Q594.89-8.71 590.34-4.85L590.34-4.85L590.34-4.85Q581.53 2.67 573.21 2.67L573.21 2.67L573.21 2.67Q566.08 2.67 563.21-1.58L563.21-1.58L563.21-1.58Q562.12-3.27 562.12-5.64L562.12-5.64L562.12-5.64Q562.12-8.02 563.41-11.29L563.41-11.29L563.41-11.29Q565.88-16.93 574.00-22.87L574.00-22.87L574.00-22.87Q582.12-28.81 586.87-28.81ZM623.30-26.73L623.30-26.73L623.30-26.73Q625.09-26.73 627.56-24.90L627.56-24.90L627.56-24.90Q630.04-23.07 630.33-21.29L630.33-21.29L630.33-21.29Q630.43-20.59 630.43-20.00L630.43-20.00L630.43-20.00Q630.43-15.54 626.08-10.44L626.08-10.44L626.08-10.44Q621.72-5.35 616.27-1.78L616.27-1.78L616.27-1.78Q607.86 3.96 599.54 3.96L599.54 3.96L599.54 3.96Q596.18 3.96 594.20 3.07L594.20 3.07L594.20 3.07Q592.61 2.28 598.16 2.28L598.16 2.28L598.16 2.28Q604.20 2.28 613.80-4.85L613.80-4.85L613.80-4.85Q623.11-11.38 625.09-20.49L625.09-20.49L625.09-20.49Q625.38-21.88 625.04-23.31L625.04-23.31L625.04-23.31Q624.69-24.75 623.30-24.75L623.30-24.75L623.30-24.75Q618.85-24.75 611.62-18.51L611.62-18.51L611.62-18.51Q608.55-15.94 605.34-11.58L605.34-11.58L605.34-11.58Q602.12-7.23 602.12-4.46L602.12-4.46L602.12-4.46Q602.12-4.06 602.27-3.61L602.27-3.61L602.27-3.61Q602.42-3.17 601.92-2.18L601.92-2.18L601.92-2.18Q600.63 0.40 598.26-2.48L598.26-2.48L598.26-2.48Q597.66-3.96 597.66-5.54L597.66-5.54L597.66-5.54Q597.66-10.10 599.05-15.15L599.05-15.15L599.05-15.15Q598.65-14.75 597.32-12.72L597.32-12.72L597.32-12.72Q595.98-10.69 594.20-8.71L594.20-8.71L594.20-8.71Q593.31-7.72 592.81-8.71L592.81-8.71L592.81-8.71Q592.71-8.91 592.71-9.26L592.71-9.26L592.71-9.26Q592.71-9.60 593.11-10.10L593.11-10.10L593.11-10.10Q600.83-19.70 602.12-22.57L602.12-22.57L602.12-22.57Q603.90-27.52 607.56-35.49L607.56-35.49L607.56-35.49Q611.23-43.46 614.30-48.21L614.30-48.21L614.30-48.21Q620.63-58.21 627.36-58.21L627.36-58.21L627.36-58.21Q628.55-58.21 629.84-57.92L629.84-57.92L631.82-57.22L631.82-57.22Q634.69-55.54 634.69-52.92L634.69-52.92L634.69-52.92Q634.69-50.29 633.11-47.22L633.11-47.22L633.11-47.22Q630.53-41.98 622.02-34.01L622.02-34.01L622.02-34.01Q613.50-26.04 605.48-20.49L605.48-20.49L605.48-20.49Q603.50-16.93 602.42-11.19L602.42-11.19L602.42-11.19Q606.08-16.63 611.97-21.68L611.97-21.68L611.97-21.68Q617.86-26.73 623.30-26.73ZM620.14-35.64L620.14-35.64L620.14-35.64Q631.92-47.52 631.92-53.26L631.92-53.26L631.92-53.26Q631.92-55.64 630.13-55.64L630.13-55.64L630.13-55.64Q628.75-55.64 626.37-53.86L626.37-53.86L626.37-53.86Q616.18-46.04 606.57-24.45L606.57-24.45L606.57-24.45Q613.31-28.91 620.14-35.64Z" fill="#f2722f"></path></g></g><style>text {
  font-size: 64px;
  font-family: Arial Black;
  dominant-baseline: central;
  text-anchor: middle;
}</style></svg>