<?xml version="1.0" encoding="UTF-8"?>
<svg version="1.1" xmlns="http://www.w3.org/2000/svg" width="157" height="329">
<path d="M0 0 C2.65385005 0.74944784 5.31366293 1.47310391 7.97583008 2.19238281 C16.3217887 4.47323829 24.59695345 6.92974879 32.77856445 9.74707031 C33.45937576 9.97693634 34.14018707 10.20680237 34.84162903 10.44363403 C41.33753876 12.75104684 46.53131927 15.81994616 50.3605957 21.62988281 C53.2920624 28.07724445 53.78923394 33.41503272 53.74154663 40.44665527 C53.7462266 41.51365331 53.75090657 42.58065135 53.75572836 43.67998266 C53.76766269 47.24348852 53.75822694 50.8066087 53.7487793 54.37011719 C53.75284567 56.92971521 53.75818793 59.48931148 53.76470947 62.04890442 C53.77696191 68.27228248 53.77517827 74.49551851 53.76647155 80.71889842 C53.75968731 85.77824012 53.75878148 90.83755141 53.762043 95.89689636 C53.7625027 96.61787194 53.7629624 97.33884752 53.76343603 98.08167085 C53.76439523 99.54646974 53.76536788 101.01126861 53.7663538 102.47606748 C53.77490168 116.20087235 53.76508302 129.92561703 53.7489527 143.65041202 C53.73555006 155.41850143 53.73787832 167.18650204 53.75170898 178.95458984 C53.76777544 192.63138684 53.77407777 206.30813113 53.76487219 219.98493624 C53.76391658 221.44424724 53.76297347 222.90355825 53.762043 224.36286926 C53.76158017 225.08081644 53.76111735 225.79876363 53.76064049 226.53846678 C53.7580538 231.58980029 53.76241468 236.64110027 53.76948166 241.69242859 C53.77879009 248.4952166 53.77213159 255.29781131 53.75479889 262.10059166 C53.75083338 264.59669911 53.75196917 267.09282067 53.75858688 269.5889225 C53.76678955 272.99717532 53.75649546 276.40489166 53.74154663 279.81311035 C53.75158488 281.29327708 53.75158488 281.29327708 53.76182592 282.80334616 C53.70027867 290.04246544 52.58092818 296.69860969 47.6730957 302.37988281 C47.23610352 302.91097656 46.79911133 303.44207031 46.34887695 303.98925781 C40.6678561 308.6769371 33.58644222 310.65407087 26.5949707 312.54003906 C25.68032043 312.79361679 24.76567017 313.04719452 23.82330322 313.30845642 C20.92113755 314.11084733 18.01594801 314.90161834 15.1105957 315.69238281 C13.17680138 316.22616192 11.2432057 316.76066122 9.30981445 317.29589844 C4.76905975 318.55008902 0.22261662 319.78169085 -4.32714844 321.00274658 C-6.31762868 321.54260997 -8.30237823 322.10352308 -10.28588867 322.66845703 C-24.62413638 326.61402068 -36.23020004 323.27830654 -50.2019043 319.44238281 C-52.02253648 318.95351687 -53.84349878 318.46587867 -55.66479492 317.97949219 C-60.12655842 316.78427626 -64.58175757 315.56640997 -69.03536987 314.34121704 C-71.62784608 313.63304013 -74.22393828 312.93981655 -76.82128906 312.24975586 C-78.44038678 311.81410781 -80.05944781 311.37832337 -81.6784668 310.94238281 C-82.41396255 310.74993484 -83.14945831 310.55748688 -83.90724182 310.35920715 C-92.54337232 308.01038914 -97.28499324 304.10000622 -101.72924805 296.46191406 C-103.31448263 293.27103414 -103.76568332 290.70153257 -103.77362537 287.19412804 C-103.77808322 286.28105554 -103.78254106 285.36798304 -103.78713399 284.42724168 C-103.78694963 283.42269083 -103.78676527 282.41813998 -103.78657532 281.38314819 C-103.79025201 280.31704429 -103.79392869 279.25094039 -103.7977168 278.15253031 C-103.80877423 274.56213129 -103.81260098 270.97176118 -103.81640625 267.38134766 C-103.82266936 264.81425891 -103.82931603 262.24717107 -103.83631897 259.68008423 C-103.85608147 251.96302309 -103.86614986 244.24596065 -103.87504676 236.52888054 C-103.8794305 232.89392349 -103.88479713 229.25896789 -103.89003563 225.62401199 C-103.9070486 213.53871908 -103.92154207 201.45342706 -103.92878437 189.36812401 C-103.93069424 186.23190688 -103.93261457 183.09568976 -103.93457031 179.95947266 C-103.93505405 179.17998888 -103.93553779 178.40050511 -103.93603619 177.59740062 C-103.94433382 164.97449985 -103.96966589 152.35169392 -104.00215099 139.72883455 C-104.03523789 126.76632197 -104.05323465 113.80385755 -104.05642861 100.84130251 C-104.05859233 93.56450497 -104.06732054 86.28784568 -104.09288979 79.01108932 C-104.11689361 72.16403654 -104.1204122 65.31723617 -104.1101284 58.47014999 C-104.10963241 55.95833001 -104.11597156 53.44649787 -104.12968445 50.93471527 C-104.14737317 47.50235161 -104.14031097 44.0708836 -104.12715149 40.63851929 C-104.13812074 39.64735277 -104.14908998 38.65618624 -104.16039163 37.63498437 C-104.08850471 29.85458781 -102.03901696 23.59553196 -97.3894043 17.31738281 C-91.34330595 11.40869579 -83.39692018 9.46397538 -75.4519043 7.25488281 C-74.40760254 6.95815674 -73.36330078 6.66143066 -72.28735352 6.35571289 C-70.13129504 5.74344443 -67.97438777 5.13415721 -65.81665039 4.52783203 C-62.79051737 3.6725902 -59.77078843 2.79814955 -56.75268555 1.91503906 C-54.92327345 1.38243549 -53.09384706 0.84988103 -51.2644043 0.31738281 C-50.02847534 -0.04589111 -50.02847534 -0.04589111 -48.76757812 -0.41650391 C-46.3985976 -1.09899764 -44.02462254 -1.74683164 -41.6394043 -2.37011719 C-40.87080078 -2.57169434 -40.10219727 -2.77327148 -39.31030273 -2.98095703 C-25.39304026 -6.21509073 -13.44161075 -3.79788617 0 0 Z " fill="#D79B48" transform="translate(103.639404296875,4.3701171875)"/>
<path d="M0 0 C0 108.57 0 217.14 0 329 C-9.00102642 327.8748717 -9.00102642 327.8748717 -12.83276367 326.84838867 C-14.12031807 326.50749458 -14.12031807 326.50749458 -15.43388367 326.15971375 C-16.33613174 325.9149379 -17.23837982 325.67016205 -18.16796875 325.41796875 C-19.60297478 325.0347924 -19.60297478 325.0347924 -21.06697083 324.64387512 C-23.08381227 324.10420066 -25.09997229 323.56197386 -27.11547852 323.01733398 C-30.15941489 322.19508653 -33.20545012 321.38103936 -36.25195312 320.56835938 C-68.94148491 311.81901918 -68.94148491 311.81901918 -74 305 C-77.77387464 298.33270562 -78.5763985 292.60540279 -78.50793457 285.03173828 C-78.51417453 283.96050783 -78.5204145 282.88927738 -78.52684355 281.7855854 C-78.54273595 278.21360062 -78.53018339 274.64230176 -78.51757812 271.0703125 C-78.52300088 268.50233565 -78.53012439 265.93436191 -78.53881836 263.36639404 C-78.55656345 257.12609163 -78.55278162 250.88598215 -78.5411678 244.64567232 C-78.53211788 239.57205408 -78.53091619 234.49848973 -78.53526306 229.42486572 C-78.53587599 228.70153899 -78.53648893 227.97821226 -78.53712043 227.23296654 C-78.53839939 225.76333791 -78.53969624 224.2937093 -78.5410108 222.82408071 C-78.55240484 209.05773338 -78.5393214 195.29149276 -78.51780933 181.52516294 C-78.49993939 169.72440416 -78.50304383 157.92380281 -78.52148438 146.12304688 C-78.54291192 132.40447081 -78.55130631 118.68598816 -78.53903532 104.96739769 C-78.53776118 103.5033099 -78.5365037 102.0392221 -78.53526306 100.57513428 C-78.53464596 99.85485869 -78.53402886 99.13458309 -78.53339306 98.39248097 C-78.5299458 93.3275694 -78.535755 88.2627173 -78.54518127 83.19781494 C-78.55760012 76.37526865 -78.54870218 69.55302402 -78.52560425 62.7305069 C-78.52032053 60.22837059 -78.5218251 57.72620925 -78.53065491 55.22408295 C-78.54160663 51.80513985 -78.52784971 48.38714464 -78.50793457 44.96826172 C-78.51685746 43.98118792 -78.52578034 42.99411411 -78.53497362 41.97712898 C-78.44744316 34.21493902 -76.38964442 27.95113742 -71.75 21.6875 C-65.70390165 15.77881298 -57.75751588 13.83409257 -49.8125 11.625 C-48.76819824 11.32827393 -47.72389648 11.03154785 -46.64794922 10.72583008 C-44.49189074 10.11356162 -42.33498347 9.5042744 -40.17724609 8.89794922 C-37.15111308 8.04270738 -34.13138413 7.16826674 -31.11328125 6.28515625 C-29.28386916 5.75255268 -27.45444276 5.21999822 -25.625 4.6875 C-24.38907104 4.32422607 -24.38907104 4.32422607 -23.12817383 3.95361328 C-15.37254762 1.71924867 -8.10640193 0 0 0 Z " fill="#264864" transform="translate(78,0)"/>
<path d="M0 0 C4.95 0 9.9 0 15 0 C14.67 0.66 14.34 1.32 14 2 C12.35 2 10.7 2 9 2 C9 2.66 9 3.32 9 4 C4.545 3.01 4.545 3.01 0 2 C0 1.34 0 0.68 0 0 Z " fill="#1E3F5E" transform="translate(30,315)"/>
<path d="M0 0 C-0.33 0.66 -0.66 1.32 -1 2 C-3.97 2 -6.94 2 -10 2 C-9.67 1.01 -9.34 0.02 -9 -1 C-5.23375329 -2.25541557 -3.62811066 -1.37061958 0 0 Z " fill="#1D3F5C" transform="translate(23,17)"/>
<path d="M0 0 C0.33 0 0.66 0 1 0 C1.33 3.63 1.66 7.26 2 11 C0.68 9.68 -0.64 8.36 -2 7 C-1.34 4.69 -0.68 2.38 0 0 Z " fill="#1E3F5B" transform="translate(5,296)"/>
</svg>
